<?xml version="1.0" standalone="no"?><!DOCTYPE svg PUBLIC "-//W3C//DTD SVG 1.1//EN" "http://www.w3.org/Graphics/SVG/1.1/DTD/svg11.dtd"><svg t="1598835450772" class="icon" viewBox="0 0 1024 1024" version="1.1" xmlns="http://www.w3.org/2000/svg" p-id="3163" xmlns:xlink="http://www.w3.org/1999/xlink" width="200" height="200"><defs><style type="text/css"></style></defs><path d="M119.466667 143.473778c68.266667-37.176889 157.866667-57.827556 256-57.827556 93.866667 0 174.933333 20.650667 243.2 53.674667 64 33.052444 119.466667 82.602667 128 148.650667 4.266667 20.650667-12.8 45.425778-34.133334 49.550222-21.333333 4.124444-46.933333-12.373333-51.2-33.024-4.266667-28.899556-29.866667-61.952-85.333333-86.698667-51.2-24.775111-123.733333-41.301333-204.8-41.301333-85.333333 0-162.133333 20.650667-213.333333 49.550222C106.666667 246.698667 85.333333 279.722667 85.333333 308.622222c0 24.775111 12.8 53.674667 51.2 78.449778 34.133333 24.775111 85.333333 45.425778 149.333334 57.799111 21.333333 4.152889 38.4 24.775111 34.133333 49.550222-4.266667 20.650667-25.6 37.176889-51.2 33.052445-64-12.401778-123.733333-33.052444-170.666667-61.952 0 0 0 4.124444-4.266666 4.124444-4.266667 12.401778-8.533333 20.650667-8.533334 33.052445 0 24.746667 12.8 49.550222 51.2 78.449777 34.133333 24.746667 85.333333 45.397333 149.333334 57.799112 21.333333 4.124444 38.4 24.746667 34.133333 49.550222-4.266667 20.650667-25.6 37.148444-51.2 33.024-68.266667-12.373333-128-33.024-174.933333-66.048-4.266667 8.248889-8.533333 20.622222-8.533334 32.995555 0 28.928 21.333333 57.827556 68.266667 86.755556 46.933333 28.871111 115.2 49.521778 192 53.646222 21.333333 0 38.4 20.650667 38.4 41.301333 0 24.775111-21.333333 41.301333-46.933333 37.148445-89.6-4.124444-170.666667-28.899556-230.4-66.048C46.933333 808.248889 0 754.545778 0 688.497778c0-28.899556 8.533333-53.674667 21.333333-78.449778l12.8-12.401778C12.8 568.746667 0 539.875556 0 502.698667c0-28.899556 8.533333-53.674667 21.333333-78.449778 4.266667-8.248889 8.533333-12.401778 17.066667-16.526222C12.8 382.947556 0 349.923556 0 308.622222c0-70.200889 51.2-128 119.466667-165.148444z" p-id="3164"></path><path d="M1024 564.622222c0-61.923556-46.933333-111.502222-102.4-140.373333-59.733333-33.052444-136.533333-49.550222-217.6-49.550222-81.066667 0-157.866667 16.497778-217.6 49.550222-55.466667 28.899556-102.4 78.449778-102.4 140.373333 0 28.899556 12.8 57.799111 29.866667 78.449778-17.066667 20.650667-29.866667 45.425778-29.866667 78.449778 0 61.952 46.933333 111.502222 102.4 140.401778a494.705778 494.705778 0 0 0 217.6 49.550222c85.333333 0 157.866667-16.526222 217.6-49.550222 55.466667-28.899556 102.4-78.449778 102.4-140.401778 0-33.024-12.8-57.799111-25.6-78.449778 12.8-20.650667 25.6-49.550222 25.6-78.449778z m-145.066667 227.100445c-42.666667 24.746667-106.666667 37.148444-174.933333 37.148444-68.266667 0-132.266667-16.497778-174.933333-37.148444-42.666667-24.775111-59.733333-49.550222-59.733334-70.200889 0-8.248889 0-12.373333 8.533334-20.650667 59.733333 33.052444 140.8 53.674667 226.133333 53.674667s166.4-20.622222 226.133333-53.674667c4.266667 8.248889 8.533333 12.401778 8.533334 20.650667 0 20.650667-17.066667 45.425778-59.733334 70.200889z m34.133334-181.674667c-38.4 33.024-115.2 61.923556-209.066667 61.923556-89.6 0-162.133333-24.746667-200.533333-53.674667l-4.266667-4.124445-4.266667-4.124444c-17.066667-16.497778-25.6-33.024-25.6-45.425778 0-20.650667 17.066667-45.425778 59.733334-70.200889 42.666667-24.746667 106.666667-37.148444 174.933333-37.148444 68.266667 0 132.266667 16.497778 174.933333 37.148444 42.666667 24.775111 59.733333 49.550222 59.733334 70.200889 0 12.401778-8.533333 28.899556-25.6 45.425778z" p-id="3165"></path></svg>