<?xml version="1.0" standalone="no"?><!DOCTYPE svg PUBLIC "-//W3C//DTD SVG 1.1//EN" "http://www.w3.org/Graphics/SVG/1.1/DTD/svg11.dtd"><svg t="1598835506110" class="icon" viewBox="0 0 1024 1024" version="1.1" xmlns="http://www.w3.org/2000/svg" p-id="4966" xmlns:xlink="http://www.w3.org/1999/xlink" width="200" height="200"><defs><style type="text/css"></style></defs><path d="M921.6 1024H102.4a51.2 51.2 0 0 1-50.5088-59.6224l102.4-614.4A51.2 51.2 0 0 1 204.8 307.2h614.4a51.2 51.2 0 0 1 50.5088 42.7776l102.4 614.4A51.2 51.2 0 0 1 921.6 1024zM162.8416 921.6h698.3168l-85.3248-512H248.1664zM716.8 256h-102.4V204.8a102.4 102.4 0 0 0-204.8 0v51.2h-102.4V204.8a204.8 204.8 0 0 1 409.6 0v51.2z" fill="#54626C" p-id="4967"></path></svg>